<?xml version="1.0" encoding="UTF-8" standalone="no"?>
<!DOCTYPE svg PUBLIC "-//W3C//DTD SVG 1.1//EN" "http://www.w3.org/Graphics/SVG/1.1/DTD/svg11.dtd">
<svg version="1.1" xmlns="http://www.w3.org/2000/svg" xmlns:xlink="http://www.w3.org/1999/xlink" preserveAspectRatio="xMidYMid meet" viewBox="0 0 313 404" width="313" height="404"><defs><path d="M81.17 257.82L81.42 257.84L81.66 257.87L81.89 257.9L82.12 257.94L82.34 257.99L82.55 258.05L82.76 258.11L82.96 258.18L83.15 258.26L83.34 258.34L83.53 258.43L83.7 258.53L83.88 258.63L84.04 258.74L84.21 258.85L84.37 258.97L84.52 259.1L84.67 259.23L84.82 259.36L84.96 259.5L85.1 259.64L85.23 259.79L85.37 259.94L85.49 260.1L85.62 260.26L85.75 260.43L85.87 260.6L85.99 260.77L86.1 260.94L86.22 261.12L86.33 261.31L86.45 261.49L86.56 261.68L86.67 261.87L86.78 262.06L86.89 262.26L87 262.46L87.1 262.66L90.51 270.35L204.6 270.35L204.84 270.36L205.08 270.37L205.32 270.39L205.55 270.43L205.78 270.47L206 270.52L206.23 270.58L206.45 270.65L206.66 270.73L206.87 270.81L207.08 270.91L207.29 271.01L207.48 271.11L207.68 271.23L207.87 271.35L208.05 271.48L208.23 271.62L208.4 271.76L208.57 271.91L208.73 272.07L208.89 272.23L209.04 272.4L209.18 272.57L209.32 272.75L209.45 272.94L209.57 273.13L209.68 273.32L209.79 273.52L209.89 273.73L209.99 273.93L210.07 274.15L210.15 274.36L210.22 274.58L210.27 274.81L210.33 275.03L210.37 275.26L210.4 275.5L210.43 275.73L210.44 275.97L210.44 276.21L210.44 381.76L210.44 382.01L210.43 382.25L210.4 382.48L210.37 382.72L210.33 382.95L210.27 383.17L210.22 383.4L210.15 383.62L210.07 383.83L209.99 384.05L209.89 384.25L209.79 384.46L209.68 384.66L209.57 384.85L209.45 385.04L209.32 385.23L209.18 385.41L209.04 385.58L208.89 385.75L208.73 385.91L208.57 386.07L208.4 386.22L208.23 386.36L208.05 386.5L207.87 386.63L207.68 386.75L207.48 386.87L207.29 386.97L207.08 387.07L206.87 387.17L206.66 387.25L206.45 387.33L206.23 387.4L206 387.46L205.78 387.51L205.55 387.55L205.32 387.59L205.08 387.61L204.84 387.62L204.6 387.63L29.27 387.63L29.03 387.62L28.79 387.61L28.55 387.59L28.32 387.55L28.09 387.51L27.86 387.46L27.64 387.4L27.42 387.33L27.2 387.25L26.99 387.17L26.79 387.07L26.58 386.97L26.38 386.87L26.19 386.75L26 386.63L25.82 386.5L25.64 386.36L25.46 386.22L25.3 386.07L25.13 385.91L24.98 385.75L24.83 385.58L24.69 385.41L24.55 385.23L24.42 385.04L24.3 384.85L24.18 384.66L24.07 384.46L23.97 384.25L23.88 384.05L23.8 383.83L23.72 383.62L23.65 383.4L23.59 383.17L23.54 382.95L23.5 382.72L23.47 382.48L23.44 382.25L23.43 382.01L23.42 381.76L23.42 276.21L23.43 275.97L23.44 275.73L23.47 275.5L23.5 275.26L23.54 275.03L23.59 274.81L23.65 274.58L23.72 274.36L23.8 274.15L23.88 273.93L23.97 273.73L24.07 273.52L24.18 273.32L24.3 273.13L24.42 272.94L24.55 272.75L24.69 272.57L24.83 272.4L24.98 272.23L25.13 272.07L25.3 271.91L25.46 271.76L25.64 271.62L25.82 271.48L26 271.35L26.19 271.23L26.38 271.11L26.58 271.01L26.79 270.91L26.99 270.81L27.2 270.73L27.42 270.65L27.64 270.58L27.86 270.52L28.09 270.47L28.32 270.43L28.55 270.39L28.79 270.37L29.03 270.36L29.27 270.35L32.08 270.35L35.49 262.66L35.56 262.46L35.65 262.26L35.73 262.06L35.82 261.87L35.91 261.68L36.01 261.49L36.11 261.31L36.21 261.12L36.32 260.94L36.43 260.77L36.54 260.6L36.66 260.43L36.78 260.26L36.91 260.1L37.04 259.94L37.18 259.79L37.32 259.64L37.46 259.5L37.61 259.36L37.76 259.23L37.92 259.1L38.08 258.97L38.25 258.85L38.43 258.74L38.6 258.63L38.79 258.53L38.97 258.43L39.17 258.34L39.37 258.26L39.57 258.18L39.78 258.11L40 258.05L40.22 257.99L40.45 257.94L40.68 257.9L40.92 257.87L41.16 257.84L41.42 257.82L41.67 257.81L41.94 257.8L80.65 257.8L80.91 257.81L81.17 257.82Z" id="c6fcrCdl92"></path><path d="M17.97 134.66C17.97 99.88 48.26 71.69 85.61 71.69C122.97 71.69 153.25 99.88 153.25 134.66C153.25 169.44 122.97 197.63 85.61 197.63C76.54 197.63 67.88 195.97 59.98 192.95C58.31 194.07 49.97 199.65 34.95 209.68L38.84 180.14C24.93 161.74 17.97 146.58 17.97 134.66Z" id="b89B4babF"></path><path d="M149.22 250.17L110.26 250.17L110.26 333.52L178.01 333.52L178.01 272.61L188.17 272.61L188.17 343.14L100.1 343.14L100.1 240.55L149.22 240.55L149.22 250.17ZM155.99 267.04L155.99 240.55L188.17 267.04L155.99 267.04Z" id="cWQofKBN2"></path><path d="M146.95 240.55L149.43 223.59C143.71 223.59 140.54 223.59 139.9 223.59C134.86 223.59 130.78 218.55 130.78 212.33C130.78 204.47 130.78 141.65 130.78 133.8C130.78 127.57 134.86 122.53 139.9 122.53C150.97 122.53 239.48 122.53 250.54 122.53C255.57 122.53 259.66 127.57 259.66 133.8C259.66 141.65 259.66 204.47 259.66 212.33C259.66 218.55 255.57 223.59 250.54 223.59C245.52 223.59 220.41 223.59 175.21 223.59L146.95 240.55Z" id="acRELe3bl"></path><path d="M240.25 197.14L242.19 197.34L244.11 197.62L246 197.98L247.87 198.41L249.7 198.92L251.51 199.49L253.29 200.14L255.03 200.86L256.74 201.64L258.42 202.49L260.05 203.4L261.65 204.38L263.21 205.42L264.72 206.51L266.2 207.66L267.62 208.87L269 210.13L270.33 211.45L271.61 212.82L272.84 214.23L274.02 215.7L275.14 217.21L276.21 218.76L277.22 220.36L278.17 222L279.06 223.68L279.88 225.4L280.65 227.16L281.35 228.95L281.98 230.78L282.54 232.63L283.03 234.52L283.45 236.44L283.8 238.38L284.07 240.35L284.27 242.34L284.39 244.36L284.43 246.4L284.39 248.43L284.27 250.45L284.07 252.44L283.8 254.41L283.45 256.36L283.03 258.27L282.54 260.16L281.98 262.02L281.35 263.84L280.65 265.63L279.88 267.39L279.06 269.11L278.17 270.79L277.22 272.43L276.25 273.98L306.64 305.19L293.55 318.63L263.16 287.42L261.65 288.42L260.05 289.39L258.42 290.3L256.74 291.15L255.03 291.94L253.29 292.65L251.51 293.3L249.7 293.88L247.87 294.38L246 294.82L244.11 295.17L242.19 295.45L240.25 295.66L238.28 295.78L236.3 295.82L234.31 295.78L232.35 295.66L230.41 295.45L228.49 295.17L226.6 294.82L224.73 294.38L222.89 293.88L221.09 293.3L219.31 292.65L217.56 291.94L215.85 291.15L214.18 290.3L212.54 289.39L210.94 288.42L209.39 287.38L207.87 286.28L206.4 285.13L204.97 283.92L203.6 282.66L202.26 281.34L200.98 279.98L199.75 278.56L198.58 277.1L197.45 275.59L196.39 274.03L195.38 272.43L194.43 270.79L193.54 269.11L192.71 267.39L191.95 265.63L191.25 263.84L190.62 262.02L190.06 260.16L189.57 258.27L189.14 256.36L188.8 254.41L188.52 252.44L188.33 250.45L188.21 248.43L188.17 246.4L188.21 244.36L188.33 242.34L188.52 240.35L188.8 238.38L189.14 236.44L189.57 234.52L190.06 232.63L190.62 230.78L191.25 228.95L191.95 227.16L192.71 225.4L193.54 223.68L194.43 222L195.38 220.36L196.39 218.76L197.45 217.21L198.58 215.7L199.75 214.23L200.98 212.82L202.26 211.45L203.6 210.13L204.97 208.87L206.4 207.66L207.87 206.51L209.39 205.42L210.94 204.38L212.54 203.4L214.18 202.49L215.85 201.64L217.56 200.86L219.31 200.14L221.09 199.49L222.89 198.92L224.73 198.41L226.6 197.98L228.49 197.62L230.41 197.34L232.35 197.14L234.31 197.02L236.3 196.97L238.28 197.02L240.25 197.14ZM233.86 216L232.66 216.13L231.48 216.3L230.31 216.52L229.16 216.79L228.03 217.1L226.91 217.46L225.82 217.86L224.74 218.3L223.68 218.78L222.65 219.31L221.64 219.87L220.65 220.47L219.69 221.11L218.76 221.79L217.85 222.5L216.97 223.24L216.12 224.02L215.3 224.83L214.51 225.68L213.75 226.55L213.02 227.46L212.33 228.39L211.67 229.35L211.05 230.33L210.46 231.35L209.92 232.38L209.4 233.44L208.93 234.53L208.5 235.63L208.11 236.76L207.77 237.9L207.46 239.07L207.2 240.25L206.99 241.45L206.82 242.67L206.7 243.9L206.63 245.14L206.6 246.4L206.63 247.65L206.7 248.9L206.82 250.13L206.99 251.34L207.2 252.54L207.46 253.73L207.77 254.89L208.11 256.04L208.5 257.16L208.93 258.27L209.4 259.35L209.92 260.41L210.46 261.45L211.05 262.46L211.67 263.45L212.33 264.41L213.02 265.34L213.75 266.24L214.51 267.12L215.3 267.96L216.12 268.77L216.97 269.55L217.85 270.3L218.76 271.01L219.69 271.68L220.65 272.32L221.64 272.92L222.65 273.49L223.68 274.01L224.74 274.5L225.82 274.94L226.91 275.34L228.03 275.69L229.16 276.01L230.31 276.27L231.48 276.49L232.66 276.67L233.86 276.79L235.07 276.87L236.3 276.89L237.52 276.87L238.73 276.79L239.93 276.67L241.12 276.49L242.28 276.27L243.44 276.01L244.57 275.69L245.69 275.34L246.78 274.94L247.86 274.5L248.91 274.01L249.95 273.49L250.96 272.92L251.94 272.32L252.9 271.68L253.84 271.01L254.75 270.3L255.63 269.55L256.48 268.77L257.3 267.96L258.09 267.12L258.85 266.24L259.57 265.34L260.27 264.41L260.92 263.45L261.55 262.46L262.13 261.45L262.68 260.41L263.19 259.35L263.66 258.27L264.09 257.16L264.48 256.04L264.83 254.89L265.13 253.73L265.39 252.54L265.61 251.34L265.78 250.13L265.9 248.9L265.97 247.65L266 246.4L265.97 245.14L265.9 243.9L265.78 242.67L265.61 241.45L265.39 240.25L265.13 239.07L264.83 237.9L264.48 236.76L264.09 235.63L263.66 234.53L263.19 233.44L262.68 232.38L262.13 231.35L261.55 230.33L260.92 229.35L260.27 228.39L259.57 227.46L258.85 226.55L258.09 225.68L257.3 224.83L256.48 224.02L255.63 223.24L254.75 222.5L253.84 221.79L252.9 221.11L251.94 220.47L250.96 219.87L249.95 219.31L248.91 218.78L247.86 218.3L246.78 217.86L245.69 217.46L244.57 217.1L243.44 216.79L242.28 216.52L241.12 216.3L239.93 216.13L238.73 216L237.52 215.93L236.3 215.9L235.07 215.93L233.86 216Z" id="a179WwKogv"></path><path d="M207.49 40.14L168.46 40.14L168.46 98.7L227.01 98.7L227.01 64.54L236.77 64.54L236.77 108.46L158.7 108.46L158.7 30.38L207.49 30.38L207.49 40.14ZM205.58 75.32L205.59 75.32L194.27 86.63L173.32 65.68L184.63 54.37L194.27 64.01L220.58 37.7L231.89 49.01L205.58 75.32Z" id="cCM1aCBA"></path></defs><g><g><g><use xlink:href="#c6fcrCdl92" opacity="1" fill="#55599e" fill-opacity="1"></use></g><g><use xlink:href="#b89B4babF" opacity="1" fill="#76b057" fill-opacity="1"></use></g><g><use xlink:href="#cWQofKBN2" opacity="1" fill="#bd5630" fill-opacity="1"></use></g><g><use xlink:href="#acRELe3bl" opacity="0.55" fill="#5d8f7b" fill-opacity="1"></use></g><g><use xlink:href="#a179WwKogv" opacity="1" fill="#5d8f7b" fill-opacity="1"></use></g><g><use xlink:href="#cCM1aCBA" opacity="1" fill="#2232ce" fill-opacity="1"></use></g></g></g></svg>